HIERARCHY
ROOT hip
{
  OFFSET 26.715 86.2426 248.726
  CHANNELS 6 Xposition Yposition Zposition Zrotation Xrotation Yrotation
  JOINT abdomen
  {
    OFFSET 0 20.6881 -0.73152
    CHANNELS 3 Zrotation Xrotation Yrotation
    JOINT chest
    {
      OFFSET 0 11.7043 -0.48768
      CHANNELS 3 Zrotation Xrotation Yrotation
      JOINT neck
      {
        OFFSET 0 22.1894 -2.19456
        CHANNELS 3 Zrotation Xrotation Yrotation
        JOINT head
        {
          OFFSET -0.24384 7.07133 1.2192
          CHANNELS 3 Zrotation Xrotation Yrotation
          JOINT leftEye
          {
            OFFSET 4.14528 8.04674 8.04672
            CHANNELS 3 Zrotation Xrotation Yrotation
            End Site
            {
              OFFSET 1 0 0
            }
          }
          JOINT rightEye
          {
            OFFSET -3.6576 8.04674 8.04672
            CHANNELS 3 Zrotation Xrotation Yrotation
            End Site
            {
              OFFSET 1 0 0
            }
          }
        }
      }
      JOINT rCollar
      {
        OFFSET -2.68224 19.2634 -4.8768
        CHANNELS 3 Zrotation Xrotation Yrotation
        JOINT rShldr
        {
          OFFSET -8.77824 -1.95073 1.46304
          CHANNELS 3 Zrotation Xrotation Yrotation
          JOINT rForeArm
          {
            OFFSET -28.1742 -1.7115 0.48768
            CHANNELS 3 Zrotation Xrotation Yrotation
            JOINT rHand
            {
              OFFSET -22.5879 0.773209 7.07136
              CHANNELS 3 Zrotation Xrotation Yrotation
              JOINT rThumb1
              {
                OFFSET -1.2192 -0.487915 3.41376
                CHANNELS 3 Zrotation Xrotation Yrotation
                JOINT rThumb2
                {
                  OFFSET -3.37035 -0.52449 3.41376
                  CHANNELS 3 Zrotation Xrotation Yrotation
                  End Site
                  {
                    OFFSET -1.78271 -1.18214 1.43049
                  }
                }
              }
              JOINT rIndex1
              {
                OFFSET -7.75947 0.938293 5.60832
                CHANNELS 3 Zrotation Xrotation Yrotation
                JOINT rIndex2
                {
                  OFFSET -2.54057 -0.884171 1.56538
                  CHANNELS 3 Zrotation Xrotation Yrotation
                  End Site
                  {
                    OFFSET -1.62519 -0.234802 1.16502
                  }
                }
              }
              JOINT rMid1
              {
                OFFSET -8.24714 1.18213 3.41376
                CHANNELS 3 Zrotation Xrotation Yrotation
                JOINT rMid2
                {
                  OFFSET -3.10165 -0.590103 1.0647
                  CHANNELS 3 Zrotation Xrotation Yrotation
                  End Site
                  {
                    OFFSET -2.48547 -0.328903 0.83742
                  }
                }
              }
              JOINT rRing1
              {
                OFFSET -8.82822 0.546677 1.51678
                CHANNELS 3 Zrotation Xrotation Yrotation
                JOINT rRing2
                {
                  OFFSET -2.60934 -0.819778 -0.0198488
                  CHANNELS 3 Zrotation Xrotation Yrotation
                  End Site
                  {
                    OFFSET -2.33842 -0.294052 0.168128
                  }
                }
              }
              JOINT rPinky1
              {
                OFFSET -8.27202 -0.0477905 -0.4584
                CHANNELS 3 Zrotation Xrotation Yrotation
                JOINT rPinky2
                {
                  OFFSET -1.82734 -0.647385 -0.700984
                  CHANNELS 3 Zrotation Xrotation Yrotation
                  End Site
                  {
                    OFFSET -1.69225 -0.51767 -0.607171
                  }
                }
              }
            }
          }
        }
      }
      JOINT lCollar
      {
        OFFSET 2.68224 19.2634 -4.8768
        CHANNELS 3 Zrotation Xrotation Yrotation
        JOINT lShldr
        {
          OFFSET 8.77824 -1.95073 1.46304
          CHANNELS 3 Zrotation Xrotation Yrotation
          JOINT lForeArm
          {
            OFFSET 28.1742 -1.7115 0.48768
            CHANNELS 3 Zrotation Xrotation Yrotation
            JOINT lHand
            {
              OFFSET 22.5879 0.773209 7.07136
              CHANNELS 3 Zrotation Xrotation Yrotation
              JOINT lThumb1
              {
                OFFSET 1.2192 -0.487915 3.41376
                CHANNELS 3 Zrotation Xrotation Yrotation
                JOINT lThumb2
                {
                  OFFSET 3.37035 -0.52449 3.41376
                  CHANNELS 3 Zrotation Xrotation Yrotation
                  End Site
                  {
                    OFFSET 1.78271 -1.18214 1.43049
                  }
                }
              }
              JOINT lIndex1
              {
                OFFSET 7.75947 0.938293 5.60832
                CHANNELS 3 Zrotation Xrotation Yrotation
                JOINT lIndex2
                {
                  OFFSET 2.54057 -0.884171 1.56538
                  CHANNELS 3 Zrotation Xrotation Yrotation
                  End Site
                  {
                    OFFSET 1.62519 -0.234802 1.16502
                  }
                }
              }
              JOINT lMid1
              {
                OFFSET 8.24714 1.18213 3.41376
                CHANNELS 3 Zrotation Xrotation Yrotation
                JOINT lMid2
                {
                  OFFSET 3.10165 -0.590103 1.0647
                  CHANNELS 3 Zrotation Xrotation Yrotation
                  End Site
                  {
                    OFFSET 2.48547 -0.328903 0.83742
                  }
                }
              }
              JOINT lRing1
              {
                OFFSET 8.82822 0.546677 1.51678
                CHANNELS 3 Zrotation Xrotation Yrotation
                JOINT lRing2
                {
                  OFFSET 2.60934 -0.819778 -0.0198488
                  CHANNELS 3 Zrotation Xrotation Yrotation
                  End Site
                  {
                    OFFSET 2.33842 -0.294052 0.168128
                  }
                }
              }
              JOINT lPinky1
              {
                OFFSET 8.27202 -0.0477905 -0.4584
                CHANNELS 3 Zrotation Xrotation Yrotation
                JOINT lPinky2
                {
                  OFFSET 1.82734 -0.647385 -0.700984
                  CHANNELS 3 Zrotation Xrotation Yrotation
                  End Site
                  {
                    OFFSET 1.69225 -0.51767 -0.607171
                  }
                }
              }
            }
          }
        }
      }
    }
  }
  JOINT rButtock
  {
    OFFSET -8.77824 4.35084 1.2192
    CHANNELS 3 Zrotation Xrotation Yrotation
    JOINT rThigh
    {
      OFFSET 0 -1.70687 -2.19456
      CHANNELS 3 Zrotation Xrotation Yrotation
      JOINT rShin
      {
        OFFSET 0 -36.8199 0.73152
        CHANNELS 3 Zrotation Xrotation Yrotation
        JOINT rFoot
        {
          OFFSET 0.73152 -45.1104 -5.12064
          CHANNELS 3 Zrotation Xrotation Yrotation
          End Site
          {
            OFFSET -1.1221 -3.69964 12.103
          }
        }
      }
    }
  }
  JOINT lButtock
  {
    OFFSET 8.77824 4.35084 1.2192
    CHANNELS 3 Zrotation Xrotation Yrotation
    JOINT lThigh
    {
      OFFSET 0 -1.70687 -2.19456
      CHANNELS 3 Zrotation Xrotation Yrotation
      JOINT lShin
      {
        OFFSET 0 -36.8199 0.73152
        CHANNELS 3 Zrotation Xrotation Yrotation
        JOINT lFoot
        {
          OFFSET -0.73152 -45.1104 -5.12064
          CHANNELS 3 Zrotation Xrotation Yrotation
          End Site
          {
            OFFSET 1.1221 -3.69964 12.103
          }
        }
      }
    }
  }
}
MOTION
Frames:	6
Frame Time:	0.00833333
-73.5348 84.3737 -204.618 0.788429 0.000540588 -0.0144455 -1.03707 -0.00414406 -0.0286005 -0.28592 -0.00382717 -0.0495325 3.62741e-014 0 2.85753e-016 1.08838e-013 3.18055e-015 8.43282e-016 -0 0 0 -0 0 0 1.80888e-014 1.33947e-017 1.98785e-016 3.84521e-013 8.32411e-016 5.1684e-015 6.55676e-012 -1.95485e-012 -1.90833e-014 7.51086e-011 2.0248e-012 7.15625e-013 1.7716e-010 1.41564e-013 1.51076e-012 3.05947e-010 2.38542e-013 2.60567e-012 1.77166e-010 1.44318e-013 1.51076e-012 7.73091 5.47488 0.417314 1.77161e-010 1.4233e-013 1.51076e-012 2.90554 0.965183 0.102902 1.77164e-010 1.4223e-013 1.51474e-012 10.2786 0.731801 0.0259123 1.77155e-010 1.41535e-013 1.52349e-012 2.22167 -0.733487 -0.20892 1.80912e-014 1.33947e-017 0 3.78633e-013 3.41661e-016 3.18055e-015 6.56904e-012 1.97135e-012 2.54444e-014 7.51072e-011 -1.92235e-012 6.9018e-013 1.77183e-010 1.01995e-013 1.51712e-012 3.05987e-010 1.78111e-013 2.61601e-012 1.77174e-010 1.05356e-013 1.52985e-012 -7.73091 5.47488 -0.417314 1.77182e-010 1.02672e-013 1.52031e-012 -2.90554 0.965183 -0.102902 1.77175e-010 1.02871e-013 1.51871e-012 -10.2786 0.731801 -0.0259123 1.7719e-010 1.02573e-013 1.51076e-012 -2.22167 -0.733487 0.20892 -2.03217e-016 0 -3.88251e-019 -0.272477 -1.9197 -0.0125465 -0.0093877 -2.07854 -0.0776042 -0.513648 3.99653 0.140516 2.03217e-016 0 3.88251e-019 -1.30458 -5.557 0.114009 -0.000207036 4.50993 -0.0271428 0.526986 1.0455 -0.0815048 
-70.8902 81.5579 -208.914 1.95256 3.29043 11.3761 -3.21376 5.23146 -1.31649 0.407046 -2.346 -0.450126 1.46947 -0.325845 -0.34024 -1.69106 6.4796 -0.499864 -0 0 0 -0 0 0 1.23739e-014 3.43967e-014 -1.48993e-013 12.14 9.49798 0.558107 -18.3083 -15.9022 15.1052 0.0280319 -3.72703 -0.519845 4.9599e-010 -1.98985e-009 1.06353e-009 8.46629e-010 -3.46119e-009 1.84116e-009 4.95994e-010 -1.98984e-009 1.06353e-009 7.73091 5.47488 0.417314 4.9599e-010 -1.98984e-009 1.06353e-009 2.90554 0.965183 0.102902 4.95994e-010 -1.98984e-009 1.06353e-009 10.2786 0.731801 0.0259123 4.95984e-010 -1.98984e-009 1.06354e-009 2.22167 -0.733487 -0.20892 1.22991e-014 3.44017e-014 -1.49177e-013 -20.6031 18.8665 -13.2363 13.5111 -10.5819 -14.0685 -0.0911445 -6.70546 0.919246 7.85156e-011 9.00244e-009 -4.4959e-010 1.43274e-010 1.54654e-008 -7.73922e-010 7.85098e-011 9.00244e-009 -4.49579e-010 -7.73091 5.47488 -0.417314 7.85148e-011 9.00244e-009 -4.49588e-010 -2.90554 0.965183 -0.102902 7.85099e-011 9.00243e-009 -4.49587e-010 -10.2786 0.731801 -0.0259123 7.85228e-011 9.00243e-009 -4.49595e-010 -2.22167 -0.733487 0.20892 -2.03217e-016 0 -3.88251e-019 -1.378 -13.9026 -0.168058 0.00150783 17.3113 0.176199 -0.17614 -6.41516 0.865165 2.03217e-016 0 3.88251e-019 2.38311 -7.93623 2.13973 -0.0776915 23.6914 -0.309355 -0.264866 -1.63178 -4.78666 
-71.0303 81.9229 -206.667 1.79469 6.33423 23.4018 -5.26575 10.7465 -2.69223 1.10036 -4.82786 -0.869718 3.02955 -0.667071 -0.681021 -3.38125 13.3193 -1.01348 -0 0 0 -0 0 0 1.33499e-015 8.18994e-014 -3.08573e-013 24.6919 19.5256 1.28675 -27.8987 -28.8328 34.6328 -0.0167387 -7.70023 -1.08159 8.38644e-010 -4.22871e-009 2.24991e-009 1.42724e-009 -7.35511e-009 3.89491e-009 8.38645e-010 -4.22871e-009 2.24991e-009 7.73091 5.47488 0.417314 8.38643e-010 -4.22869e-009 2.24991e-009 2.90554 0.965183 0.102902 8.38647e-010 -4.22871e-009 2.24991e-009 10.2786 0.731801 0.0259123 8.38638e-010 -4.22871e-009 2.24992e-009 2.22167 -0.733487 -0.20892 1.1778e-015 8.19097e-014 -3.08741e-013 -31.4079 35.1297 -32.1634 22.1089 -19.6196 -30.3771 0.052712 -13.784 1.93324 -1.15796e-011 1.93056e-008 -9.70317e-010 -3.45162e-012 3.31679e-008 -1.67022e-009 -1.15828e-011 1.93056e-008 -9.70308e-010 -7.73091 5.47488 -0.417314 -1.15804e-011 1.93056e-008 -9.70316e-010 -2.90554 0.965183 -0.102902 -1.15838e-011 1.93056e-008 -9.70313e-010 -10.2786 0.731801 -0.0259123 -1.15724e-011 1.93056e-008 -9.70321e-010 -2.22167 -0.733487 0.20892 -2.03217e-016 0 -3.88251e-019 -2.62164 -26.636 -0.318813 -0.216591 37.8572 0.541882 0.499436 -17.3686 1.74502 2.03217e-016 0 3.88251e-019 6.50527 -10.337 4.31572 0.119758 43.9789 -0.770704 -1.5675 -4.25662 -9.85668 
-71.1136 82.3129 -204.387 0.581386 8.32296 34.514 -6.83835 15.6699 -4.02568 1.69408 -7.02889 -1.25965 4.39681 -0.977397 -1.02085 -4.71661 19.4327 -1.58005 -0 0 0 -0 0 0 9.4405e-016 1.03163e-013 -4.47375e-013 35.8 28.4823 1.87884 -28.8995 -33.3489 55.5568 -0.122108 -11.1774 -1.58633 1.13365e-009 -5.96982e-009 3.18757e-009 1.92799e-009 -1.0384e-008 5.51828e-009 1.13365e-009 -5.96982e-009 3.18757e-009 7.73091 5.47488 0.417314 1.13365e-009 -5.96979e-009 3.18757e-009 2.90554 0.965183 0.102902 1.13365e-009 -5.96982e-009 3.18757e-009 10.2786 0.731801 0.0259123 1.13364e-009 -5.96982e-009 3.18758e-009 2.22167 -0.733487 -0.20892 7.1492e-016 1.03178e-013 -4.4753e-013 -30.546 42.2733 -55.4324 25.4009 -23.8803 -46.4087 0.407358 -20.095 2.91656 -1.18818e-010 2.70071e-008 -1.3518e-009 -1.82153e-010 4.63958e-008 -2.327e-009 -1.18819e-010 2.70071e-008 -1.3518e-009 -7.73091 5.47488 -0.417314 -1.18819e-010 2.70071e-008 -1.3518e-009 -2.90554 0.965183 -0.102902 -1.18821e-010 2.70071e-008 -1.3518e-009 -10.2786 0.731801 -0.0259123 -1.18811e-010 2.70071e-008 -1.35181e-009 -2.22167 -0.733487 0.20892 -2.03217e-016 0 -3.88251e-019 -3.82979 -37.867 -0.588178 -0.806426 56.0857 1.18252 1.37232 -27.217 2.5853 2.03217e-016 0 3.88251e-019 10.2738 -12.6372 6.28353 0.898346 62.0447 -1.69764 -3.16076 -6.78871 -14.2935 
-71.1725 82.7064 -202.016 -0.802788 9.07015 43.0045 -7.71143 19.1427 -5.13343 2.10686 -8.52909 -1.56773 5.289 -1.21056 -1.3582 -5.37827 23.7339 -2.21702 -0 0 0 -0 0 0 2.71729e-014 5.88302e-014 -5.34234e-013 43.9179 34.7798 1.86395 -28.133 -31.4738 69.6074 -0.226042 -13.4181 -1.9214 1.30954e-009 -6.46653e-009 3.50345e-009 2.2291e-009 -1.12505e-008 6.06573e-009 1.30954e-009 -6.46653e-009 3.50344e-009 7.73091 5.47488 0.417314 1.30954e-009 -6.4665e-009 3.50344e-009 2.90554 0.965183 0.102902 1.30954e-009 -6.46653e-009 3.50345e-009 10.2786 0.731801 0.0259123 1.30953e-009 -6.46653e-009 3.50345e-009 2.22167 -0.733487 -0.20892 2.68982e-014 5.88484e-014 -5.34383e-013 -27.1227 41.6687 -72.2691 26.2062 -23.9757 -57.6382 0.798071 -24.507 3.6734 -2.68916e-010 2.82046e-008 -1.38519e-009 -4.40795e-010 4.84377e-008 -2.38501e-009 -2.68916e-010 2.82046e-008 -1.38519e-009 -7.73091 5.47488 -0.417314 -2.68916e-010 2.82046e-008 -1.38519e-009 -2.90554 0.965183 -0.102902 -2.68918e-010 2.82046e-008 -1.38519e-009 -10.2786 0.731801 -0.0259123 -2.68909e-010 2.82046e-008 -1.3852e-009 -2.22167 -0.733487 0.20892 -2.03217e-016 0 -3.88251e-019 -4.87807 -45.3413 -1.12034 -1.86469 68.524 2.24693 2.00924 -34.3286 3.02995 2.03217e-016 0 3.88251e-019 12.8251 -14.7322 7.66653 2.76515 74.5591 -3.61351 -4.64208 -9.26879 -17.0763 
-71.1935 83.1538 -199.71 -1.52673 9.01071 47.6876 -7.84739 20.6242 -5.82365 2.29401 -9.04937 -1.75313 5.51737 -1.34372 -1.69515 -5.20842 25.4866 -2.90965 -0 0 0 -0 0 0 1.1089e-013 -1.16922e-013 -5.59474e-013 48.1617 37.3642 0.804188 -28.0932 -29.7772 74.5847 -0.258692 -13.9161 -1.99797 1.3396e-009 -4.89169e-009 2.80955e-009 2.28836e-009 -8.51816e-009 4.86609e-009 1.3396e-009 -4.89168e-009 2.80953e-009 7.73091 5.47488 0.417314 1.3396e-009 -4.89166e-009 2.80954e-009 2.90554 0.965183 0.102902 1.33961e-009 -4.89169e-009 2.80954e-009 10.2786 0.731801 0.0259123 1.3396e-009 -4.89168e-009 2.80955e-009 2.22167 -0.733487 -0.20892 1.10604e-013 -1.16903e-013 -5.59631e-013 -25.7409 40.9781 -78.3498 26.3953 -23.2762 -61.7129 0.990493 -26.2783 3.99792 -5.34108e-010 1.83717e-008 -8.20657e-010 -9.08349e-010 3.15041e-008 -1.41473e-009 -5.34107e-010 1.83717e-008 -8.20649e-010 -7.73091 5.47488 -0.417314 -5.34107e-010 1.83717e-008 -8.20657e-010 -2.90554 0.965183 -0.102902 -5.34109e-010 1.83717e-008 -8.20651e-010 -10.2786 0.731801 -0.0259123 -5.341e-010 1.83717e-008 -8.20661e-010 -2.22167 -0.733487 0.20892 -2.03217e-016 0 -3.88251e-019 -5.61014 -47.5354 -1.95506 -2.61164 72.8543 3.01307 1.89168 -37.6201 2.66053 2.03217e-016 0 3.88251e-019 13.5244 -16.6411 8.21551 4.7325 79.401 -5.56142 -5.58115 -11.8222 -17.5806 
